<?xml version="1.0" standalone="no"?>
<!DOCTYPE svg PUBLIC "-//W3C//DTD SVG 20010904//EN"
 "http://www.w3.org/TR/2001/REC-SVG-20010904/DTD/svg10.dtd">
<svg version="1.0" xmlns="http://www.w3.org/2000/svg"
 width="700.000000pt" height="700.000000pt" viewBox="0 0 700.000000 700.000000"
 preserveAspectRatio="xMidYMid meet">
<metadata>
Created by potrace 1.14, written by Peter Selinger 2001-2017
</metadata>
<g transform="translate(0.000000,700.000000) scale(0.100000,-0.100000)"
fill="#000000" stroke="none">
<path d="M333 6827 c-3 -5 -11 -6 -18 -3 -8 3 -15 2 -17 -2 -2 -4 -16 -15 -33
-24 -42 -23 -83 -85 -92 -138 -8 -43 -8 -6298 -1 -6331 2 -9 12 -28 21 -42 10
-15 15 -27 12 -27 -5 0 23 -27 61 -59 7 -5 15 -7 18 -4 3 4 6 1 6 -5 0 -7 3
-11 7 -11 5 1 10 0 13 -1 3 -1 31 -4 62 -5 31 -2 62 -6 67 -10 6 -3 11 -2 11
4 0 6 11 6 30 1 16 -5 30 -6 30 -2 0 9 53 7 68 -2 7 -4 12 -3 12 2 0 5 17 6
40 2 22 -4 40 -5 40 -1 0 8 54 6 68 -3 7 -4 12 -4 12 1 0 9 74 8 89 -2 6 -3
11 -2 11 3 0 4 23 6 50 2 28 -4 50 -4 50 -1 0 8 116 4 129 -4 6 -3 11 -2 11 4
0 6 11 6 30 1 17 -5 30 -6 30 -2 0 9 53 7 68 -2 7 -4 12 -4 12 1 0 9 74 8 89
-2 6 -3 11 -2 11 3 0 4 23 6 50 2 28 -4 50 -4 50 -1 0 8 116 4 129 -4 6 -3 11
-2 11 2 0 10 53 9 69 -2 6 -3 11 -2 11 3 0 4 23 6 50 2 28 -4 50 -4 50 -1 0 8
116 4 129 -4 6 -3 11 -3 11 2 0 4 18 8 40 8 22 0 40 -4 40 -8 0 -5 5 -5 11 -2
17 11 149 11 149 1 0 -6 4 -6 10 0 6 6 35 7 70 4 33 -3 60 -3 60 0 0 7 54 5
68 -4 7 -4 12 -4 12 1 0 9 74 8 89 -2 6 -3 11 -2 11 3 0 4 23 6 50 2 28 -4 50
-4 50 -1 0 8 116 4 129 -4 6 -3 11 -2 11 4 0 6 11 6 30 1 17 -5 30 -6 30 -2 0
9 53 7 68 -2 7 -4 12 -4 12 1 0 4 23 8 50 8 28 0 50 -4 50 -8 0 -5 5 -5 11 -2
15 10 149 11 149 2 0 -5 5 -5 11 -1 14 8 124 8 138 -1 6 -3 11 -2 11 3 0 4 22
6 50 2 28 -4 50 -4 50 -1 0 8 116 4 129 -4 6 -3 11 -2 11 2 0 10 53 9 69 -2 6
-3 11 -2 11 3 0 4 23 6 50 2 28 -4 50 -4 50 -1 0 8 116 4 129 -4 6 -3 11 -2
11 4 0 6 11 6 30 1 17 -5 30 -6 30 -2 0 9 53 7 68 -2 7 -4 12 -4 12 1 0 9 74
8 89 -2 6 -3 11 -2 11 3 0 4 23 6 50 2 28 -4 50 -4 50 -1 0 8 116 4 129 -4 6
-3 11 -2 11 4 0 6 11 6 30 1 17 -5 30 -6 30 -2 0 9 53 7 68 -2 7 -4 12 -3 12
2 0 5 17 6 40 2 22 -4 40 -5 40 -1 0 8 54 6 68 -3 7 -4 12 -4 12 1 0 9 74 8
89 -2 6 -3 11 -2 11 3 0 4 23 6 50 2 28 -4 50 -4 50 -1 0 8 116 4 129 -4 6 -3
11 -2 11 4 0 6 11 6 30 1 16 -5 30 -6 30 -2 0 9 53 7 68 -2 7 -4 12 -3 12 2 0
5 17 6 40 2 22 -4 40 -5 40 -1 0 8 54 6 68 -3 7 -4 12 -4 12 1 0 9 74 8 89 -2
6 -3 11 -2 11 3 0 4 23 6 50 2 28 -4 50 -4 50 -1 0 8 116 4 129 -4 6 -3 11 -2
11 4 0 6 11 6 30 1 17 -5 30 -6 30 -2 0 9 53 7 68 -2 7 -4 12 -3 12 2 0 5 17
6 40 2 22 -4 40 -5 40 -1 0 8 54 6 68 -3 7 -4 12 -4 12 1 0 9 74 8 89 -2 6 -3
11 -2 11 3 0 4 23 6 50 2 28 -4 50 -4 50 -1 0 8 116 4 129 -4 6 -3 11 -2 11 4
0 6 11 6 30 1 16 -5 30 -6 30 -2 0 9 53 7 68 -2 7 -4 12 -4 12 1 0 9 74 8 89
-2 6 -3 11 -2 11 3 0 4 23 6 50 2 28 -4 50 -4 50 -1 0 3 26 5 57 5 87 -3 141
28 201 111 9 14 15 35 15 63 1 12 3 22 7 22 3 0 3 1026 0 2281 -3 1254 -2
2283 3 2286 4 2 5 8 3 12 -6 9 -6 8 -3 924 1 434 0 791 -3 794 -3 2 -6 8 -6
11 -6 29 -18 52 -27 52 -6 0 -7 3 -4 6 8 8 -63 75 -74 69 -4 -3 -9 2 -13 10
-3 8 -12 12 -20 9 -8 -3 -17 0 -21 6 -6 9 -10 9 -16 -1 -5 -8 -9 -9 -9 -3 0
11 -71 11 -90 -1 -7 -5 -11 -4 -7 1 7 11 -934 11 -953 -1 -7 -5 -11 -4 -7 1 7
11 -934 11 -953 -1 -7 -5 -11 -4 -7 1 7 11 -934 11 -953 -1 -7 -5 -11 -4 -7 1
7 11 -934 11 -953 -1 -7 -5 -11 -4 -7 1 7 11 -934 11 -953 -1 -7 -5 -11 -4 -7
1 7 11 -934 11 -953 -1 -7 -5 -11 -4 -7 1 7 13 -386 12 -395 -1 -5 -7 -8 -6
-8 0 0 13 -39 14 -47 2z"/>
</g>
</svg>
